<svg version="1" xmlns="http://www.w3.org/2000/svg" width="938.667" height="938.667" viewBox="0 0 704.000000 704.000000"><path d="M257 .7c-28.2 2.8-41.5 5-58.4 9.9C135.8 28.7 95 70.7 83.1 129.5c-3.9 19.1-4.3 29.9-3.8 102 .4 73.6.6 77.5 5.8 98.5 4.5 18.4 13.9 37.7 24.5 50.5 13.9 16.7 43.5 34.7 73.2 44.5 19 6.3 32.1 8.9 68.2 14 16.2 2.2 52.2 7.2 80 11.1 27.8 3.8 52.4 7.7 54.8 8.5 11.5 4.2 17.1 16.1 16 33.7-.8 12-7.6 22.2-16.5 24.6-2.6.7-48.2 1.1-140.3 1.1-106.4 0-137.8.3-142.6 1.3-12.4 2.6-19.1 9.2-22 21.6-1.8 7.4-2 130.1-.3 138.3 2.1 9.9 7.2 16.5 15.7 20.6 3.5 1.6 14.4 1.7 175.2 2 121.2.2 175.2 0 184-.8 71-6.4 125.7-37.8 150.8-86.6 6-11.7 9.5-20.8 12.3-31.8 5.3-20.7 5.2-18.4 5.6-96.6.3-50 .1-77-.7-84.5-3.1-30.5-11.6-55.4-25.1-73.6-18.7-25.2-58.5-47.4-102.9-57.3-6.4-1.4-48.4-7.5-93.4-13.6-75.9-10.2-82.2-11.2-86.8-13.7-9.9-5.4-14.3-15-13.6-29.7.5-10.1 2.4-15 7.9-20.5 7-7.1-3.2-6.5 134.4-7.1 114.5-.5 124.3-.6 128.3-2.2 8.4-3.4 12.9-8.6 15.7-18 1.4-4.9 1.5-13.6 1.3-74.9l-.3-69.4-2.3-5c-3.1-6.8-7.5-11.1-14.1-13.8L566.5.5l-153-.1C329.4.3 258.9.5 257 .7z"/></svg>