<?xml version="1.0" encoding="UTF-8" standalone="no"?>
<!DOCTYPE svg PUBLIC "-//W3C//DTD SVG 1.1//EN" "http://www.w3.org/Graphics/SVG/1.1/DTD/svg11.dtd">
<svg width="100%" height="100%" viewBox="0 0 273 352" version="1.1" xmlns="http://www.w3.org/2000/svg" xmlns:xlink="http://www.w3.org/1999/xlink" xml:space="preserve" xmlns:serif="http://www.serif.com/" style="fill-rule:evenodd;clip-rule:evenodd;stroke-linejoin:round;stroke-miterlimit:2;">
    <g transform="matrix(1,0,0,1,-113.632,-74.3557)">
        <g transform="matrix(9.75802,0,0,9.75802,-874.569,-1981.26)">
            <clipPath id="_clip1">
                <path d="M118.871,246.659L103.071,246.659C102.437,246.659 101.979,246.517 101.696,246.234C101.412,245.951 101.271,245.492 101.271,244.859L101.271,239.009C101.271,238.376 101.412,237.917 101.696,237.634C101.979,237.351 102.437,237.209 103.071,237.209L116.521,237.209C116.954,237.209 117.279,237.067 117.496,236.784C117.712,236.501 117.821,236.159 117.821,235.759C117.821,235.192 117.712,234.776 117.496,234.509C117.279,234.242 116.954,234.092 116.521,234.059L109.021,233.009C106.687,232.676 104.812,231.909 103.396,230.709C101.979,229.509 101.271,227.509 101.271,224.709L101.271,219.459C101.271,216.626 102.187,214.451 104.021,212.934C105.854,211.417 108.387,210.659 111.621,210.659L125.621,210.659C126.254,210.659 126.712,210.801 126.996,211.084C127.279,211.367 127.421,211.826 127.421,212.459L127.421,218.409C127.421,219.042 127.279,219.501 126.996,219.784C126.712,220.067 126.254,220.209 125.621,220.209L113.971,220.209C113.537,220.209 113.204,220.351 112.971,220.634C112.737,220.917 112.621,221.276 112.621,221.709C112.621,222.142 112.737,222.509 112.971,222.809C113.204,223.109 113.537,223.276 113.971,223.309L121.421,224.309C123.754,224.642 125.637,225.409 127.071,226.609C128.504,227.809 129.221,229.809 129.221,232.609L129.221,237.859C129.221,240.692 128.296,242.867 126.446,244.384C124.596,245.901 122.071,246.659 118.871,246.659Z" clip-rule="nonzero"/>
            </clipPath>
            <g clip-path="url(#_clip1)">
                <text x="98.721px" y="246.659px" style="font-family:'Bungee-Regular', 'Bungee';font-size:50px;fill:white;">S</text>
                <g id="Backgorund" transform="matrix(0.0541685,0,0,0.0541685,83.0571,231.842)">
                    <rect x="0" y="0" width="500" height="500" style="fill:rgb(51,51,51);"/>
                    <g id="Large-Triangles" transform="matrix(7.30468,0,0,7.30468,363.921,126.543)">
                        <g transform="matrix(1,0,0,1,-150,-125)">
                            <rect x="0" y="0" width="300" height="250" style="fill:rgb(0,139,248);"/>
                            <g>
                                <path d="M125,41.667L100,83.333L150,83.333L125,41.667Z" style="fill:rgb(221,221,221);fill-opacity:0.1;fill-rule:nonzero;"/>
                                <path d="M175,41.667L150,83.333L200,83.333L175,41.667Z" style="fill-opacity:0.1;fill-rule:nonzero;"/>
                                <path d="M225,41.667L200,83.333L250,83.333L225,41.667Z" style="fill:rgb(68,68,68);fill-opacity:0.1;fill-rule:nonzero;"/>
                                <path d="M125,125L100,166.667L150,166.667L125,125Z" style="fill:rgb(221,221,221);fill-opacity:0.1;fill-rule:nonzero;"/>
                                <path d="M125,125L150,83.333L100,83.333L125,125Z" style="fill:rgb(153,153,153);fill-opacity:0.1;fill-rule:nonzero;"/>
                                <path d="M175,125L150,166.667L200,166.667L175,125Z" style="fill:rgb(153,153,153);fill-opacity:0.1;fill-rule:nonzero;"/>
                                <path d="M175,125L200,83.333L150,83.333L175,125Z" style="fill:white;fill-opacity:0.1;fill-rule:nonzero;"/>
                                <path d="M225,125L200,166.667L250,166.667L225,125Z" style="fill-opacity:0.1;fill-rule:nonzero;"/>
                                <path d="M225,125L250,83.333L200,83.333L225,125Z" style="fill:rgb(221,221,221);fill-opacity:0.1;fill-rule:nonzero;"/>
                                <path d="M150,83.333L125,125L175,125L150,83.333Z" style="fill:rgb(68,68,68);fill-opacity:0.1;fill-rule:nonzero;"/>
                                <path d="M150,83.333L175,41.667L125,41.667L150,83.333Z" style="fill:rgb(34,34,34);fill-opacity:0.1;fill-rule:nonzero;"/>
                                <path d="M200,83.333L175,125L225,125L200,83.333Z" style="fill:rgb(170,170,170);fill-opacity:0.1;fill-rule:nonzero;"/>
                                <path d="M200,83.333L225,41.667L175,41.667L200,83.333Z" style="fill:rgb(102,102,102);fill-opacity:0.1;fill-rule:nonzero;"/>
                                <path d="M150,166.667L175,125L125,125L150,166.667Z" style="fill:rgb(102,102,102);fill-opacity:0.1;fill-rule:nonzero;"/>
                            </g>
                        </g>
                    </g>
                </g>
            </g>
        </g>
    </g>
</svg>
